<svg xmlns="http://www.w3.org/2000/svg" xmlns:xlink="http://www.w3.org/1999/xlink" width="27" height="21" viewBox="0 0 27 21">
    <defs>
        <path id="ls7rlw5zma" d="M0 0L26.849 0 26.849 20.994 0 20.994z"/>
    </defs>
    <g fill="none" fill-rule="evenodd">
        <g>
            <g>
                <g transform="translate(-53.000000, -710.000000) translate(1.000000, 36.000000) translate(52.000000, 674.000000)">
                    <mask id="ils1jvd8tb" fill="#fff">
                        <use xlink:href="#ls7rlw5zma"/>
                    </mask>
                    <path fill="#72849A" d="M20.405 9.76c.293 1.462.816 3.76 1.48 5.416-.253-.158-.505-.337-.752-.533-.48-1.245-.867-3.648-.985-4.433.09-.152.175-.3.257-.45zm-2.702 1.852c-.313.257-.945.565-1.885.041.622-1.96.6-4.562.571-5.465l4.08-1.367c.347-.016 1.896.083 2.7 3.062.108.398.21.784.305 1.15h-.008c-.618 0-1.62-.184-2.41-1.21l-.15-.198h-.249c-.326 0-.434.234-.529.44-1.045 2.255-1.842 3.13-2.326 3.468l-.103.073.004.006zm4.13-1.91c.233 1.094.999 4.382 2.162 6.355-.213-.046-.43-.106-.65-.18-.885-1.393-1.636-4.745-1.971-6.422.15.095.305.177.46.247zm3.452 6.454c-1.135-1.352-1.992-4.612-2.348-6.148.261.033.525.042.788.025.164.665.275 1.156.366 1.56.169.75.262 1.162.467 1.688.13.333.335.743.557 1.186.224.445.623 1.24.71 1.6-.118.035-.304.072-.54.089zm-11.572.74v-.016l-.364.009-.242-.006-.129.007v.006c-.488.008-.892.011-1.14.009-.68-1.653-1.111-3.263-1.292-4.002.455-.089.92-.3 1.383-.627l.32-.226-.14-.365c-.405-1.06-.561-2.457-.618-3.535.835.68 1.57.758 1.862.758h.004l.076.619.067-.619c.295 0 1.026-.081 1.858-.758-.057 1.078-.213 2.475-.618 3.535l-.14.365.32.226c.412.291.826.49 1.234.593-.18.737-.61 2.36-1.3 4.036-.25.002-.654 0-1.14-.01zm-.358-15.358c0 .37.302.673.673.673.371 0 .673-.302.673-.673v-.005l.046.046c.06.06.102.097.18.12h-.076v.444c-.85.246-1.28.623-1.28 1.121 0 1.91.95 2.572 1.808 2.921.005.155.008.317.01.483-.933 1.216-1.78 1.236-1.896 1.233l-.005-.036-.093.026-.045-.005-.001.015h-.004c-.14 0-.978-.052-1.885-1.234.004-.377.016-.644.02-.732l.701-3.356c.064-.492.386-1.57.926-1.57h.51c-.158.123-.262.313-.262.529zm1.084-.53h.05c.04.012.093.049.104.166-.041-.064-.094-.119-.154-.166zm-.488.53c0-.043.034-.078.077-.078s.078.035.078.078c0 .042-.035.077-.078.077s-.077-.035-.077-.077zM6.7 10.21c-.118.785-.504 3.188-.985 4.433-.247.196-.499.375-.751.533.663-1.655 1.186-3.954 1.48-5.416.081.15.166.299.256.45zM1.738 14.46c.218-.435.424-.845.553-1.178.205-.525.298-.939.468-1.69l.003-.015c.09-.395.2-.883.362-1.543.263.017.527.008.788-.025-.356 1.536-1.213 4.796-2.348 6.148-.236-.017-.422-.054-.54-.09.087-.359.486-1.154.71-1.6l.004-.007zm3.737-5.004c-.335 1.677-1.086 5.03-1.97 6.422-.22.074-.438.134-.65.18 1.163-1.973 1.928-5.261 2.16-6.355.155-.07.31-.152.46-.247zm3.572 2.078c-.484-.337-1.28-1.213-2.326-3.468-.095-.206-.203-.44-.529-.44h-.249l-.15.197C5.002 8.85 4 9.033 3.382 9.033h-.008c.095-.367.197-.754.304-1.15.819-3.031 2.441-3.075 2.695-3.062l4.084 1.442c-.032 1.068-.025 3.508.572 5.39-.939.523-1.571.216-1.884-.04l.005-.008-.104-.072zm-.965.51c-.3.433-.606.833-.917 1.195.146-.637.269-1.285.36-1.809.19.24.377.446.557.615zm1.815 7.943h6.998v-2.07H9.897v2.07zm9.427-8.557c.091.524.214 1.172.36 1.81-.31-.363-.618-.762-.917-1.195.18-.169.366-.374.557-.615zm6.691 2.583c-.208-.414-.404-.805-.518-1.097-.176-.453-.258-.817-.422-1.541l-.003-.014c-.166-.735-.417-1.845-.929-3.74-1.113-4.121-3.737-3.81-3.848-3.795l-4.42 1.472c-.675-.246-1.273-.598-1.295-1.954.151-.113.758-.318 1.407-.402l.633-.082-.058-.151h.9v-.504c0-1.084-.87-1.485-1.459-1.49-.16.003-.337.006-.488.007-.195-.502-.665-.688-.924-.718L13.107 0c-1.604 0-1.919 2.399-1.92 2.411l-.592 2.832-3.956-1.398-.072-.017-.013-.003c-.11-.016-2.733-.334-3.848 3.795-.515 1.908-.765 3.016-.931 3.75-.163.725-.246 1.09-.423 1.545-.114.292-.31.683-.518 1.097-.702 1.397-1.08 2.212-.656 2.705.242.283.883.459 1.67.459.117 0 .235-.004.35-.012 1.397-.091 4.113-.801 6.694-4.512.193.106.4.186.613.236.134.58.543 2.226 1.248 4.02H8.888v4.086h9.016v-4.086h-1.966c.683-1.736 1.082-3.304 1.241-3.988.272-.045.533-.135.777-.269 2.582 3.712 5.298 4.422 6.694 4.513.116.008.234.012.35.012.788 0 1.429-.176 1.671-.46.423-.492.046-1.307-.656-2.704z" mask="url(#ils1jvd8tb)"/>
                </g>
            </g>
        </g>
    </g>
</svg>
