<svg xmlns="http://www.w3.org/2000/svg" xmlns:xlink="http://www.w3.org/1999/xlink" width="22" height="22" viewBox="0 0 22 22">
    <defs>
        <path id="czgoxjfcza" d="M0 0L21.955 0 21.955 21.846 0 21.846z"/>
    </defs>
    <g fill="none" fill-rule="evenodd">
        <g>
            <g>
                <g transform="translate(-55.000000, -354.000000) translate(1.000000, 36.000000) translate(54.000000, 318.000000)">
                    <mask id="pidtku9rcb" fill="#fff">
                        <use xlink:href="#czgoxjfcza"/>
                    </mask>
                    <path fill="#72849A" d="M20.81 17.727c-.666.198-2.27-.578-3.539-2.534l-3.378-5.606c-.004-.008-.01-.014-.016-.021.173-.483.315-1.054.32-1.634.886.712 2.472 2.027 3.382 3.028 1.345 1.48 3.478 4.51 3.478 6.348 0 .346-.167.395-.247.419zm-4.775-.302c-.825-.288-1.465-1.168-1.901-2.614-.021-.068-.058-.126-.103-.175-.044-1.124-.173-2.096-.311-2.65-.112-.447-.276-.813-.472-1.112l.006.003c.01-.015.081-.129.18-.312l3.076 5.104c.41.633.854 1.16 1.305 1.588-.395.185-1.084.411-1.78.168zm-.862 2.287c-.36-1.198-1.192-2.086-1.234-2.13l-.016-.014c.033-.267.058-.537.077-.808.211.346.447.638.704.877.065.707.4 1.41.73 1.948-.091.038-.179.081-.261.127zm-4.143 1.232c-.413-.018-.76-.21-1.059-.594-.038-.048-.073-.1-.109-.152h2.335c-.035.053-.07.104-.108.152-.3.383-.647.576-1.06.594zm-2.91-3.361c-.041.043-.872.93-1.233 2.129-.082-.045-.17-.089-.261-.127.328-.531.665-1.237.73-1.948.257-.24.492-.53.703-.876.02.27.045.54.078.807-.005.006-.011.01-.017.015zm-3.883-.332c.419-.395.82-.86 1.18-1.384l3.198-5.323c.104.195.18.317.192.333l.005-.003c-.196.3-.36.665-.472 1.113-.138.553-.267 1.525-.311 2.65-.046.048-.082.106-.103.174-.435 1.443-1.072 2.321-1.895 2.611-.696.246-1.397.014-1.794-.171zm-2.994.474c-.078-.024-.24-.075-.24-.417 0-1.838 2.133-4.869 3.477-6.348.91-1 2.497-2.316 3.383-3.028.005.573.143 1.136.313 1.615-.019.021-.036.044-.051.069L4.663 15.38c-1.262 1.83-2.796 2.537-3.42 2.344zm4.815-9.522c-.21.015-.758.215-1.527.555-.134-.269-.287-.69-.286-1.24.016-.045.025-.09.026-.138.56-.06 1.742-.115 2.72.1-.263.214-.56.46-.873.725-.02-.002-.04-.004-.06-.002zm-4.719.755c-.014-.22-.06-.467-.164-.73.829-.074 1.622-.16 2.195-.273.011.09.025.179.042.267-.483.039-1.212.203-2.073.736zM8.43 5.195c-.087.234-.194.55-.292.91-.435-.415-1.143-.987-1.978-1.275 0-.021 0-.042-.003-.063.079-.168.209-.34.335-.484.392.093 1.283.369 1.938.912zm1.514-2.52c.103 0 .204.018.3.05-.001.015-.004.03-.004.044 0 .006-.01.58-.347.907-.187.182-.448.263-.797.25-.028-.001-.056 0-.083.005-.027-.09-.042-.184-.042-.282 0-.537.436-.974.973-.974zm3.145.974c0 .1-.015.198-.044.29-.036-.008-.073-.014-.112-.013-.345.012-.606-.067-.792-.246-.343-.33-.35-.898-.35-.913 0-.01-.003-.02-.004-.031.105-.04.216-.06.329-.06.537 0 .973.436.973.973zm2.81 1.118c-.002.02-.004.042-.003.062-.833.288-1.54.858-1.974 1.272-.099-.36-.206-.675-.293-.908.655-.542 1.543-.817 1.935-.91.126.143.256.316.334.484zm-6.9 12.436c-.04-.395-.066-.798-.078-1.198h4.218c-.012.4-.038.803-.079 1.198H9zm.971-6.29c.438-.343.9-.354 1.045-.349v.002l.011-.001.022.001v-.002c.13-.007.598 0 1.043.349H9.97zm-.905 2.096c.043-.316.094-.59.147-.804.036-.144.078-.274.125-.394h3.386c.047.12.089.25.125.394.053.213.103.488.147.804h-3.93zm-.095.899h4.12c.029.375.048.78.055 1.198h-4.23c.007-.419.026-.823.055-1.198zm3.645-3.72c-.55-.417-1.161-.538-1.583-.523-.421-.017-1.036.104-1.587.523-.223-.408-.684-1.36-.684-2.286 0-.912.347-1.956.538-2.462l.196.024c.144.036.294.057.45.057V5.52l1.051.13 1.12-.134v.005c.16 0 .316-.023.465-.061l.18-.021c.19.505.538 1.55.538 2.463 0 .926-.46 1.879-.684 2.286zm-1.6-6.688c.088.27.238.57.496.82.13.128.277.231.439.31l-.952.114-.919-.113c.162-.08.309-.183.44-.31.258-.25.408-.55.496-.82zm1.615 15.8H9.43c-.128-.364-.228-.77-.305-1.198h3.81c-.077.428-.177.834-.305 1.199zm4.99-11.92c0 .047.01.094.026.138.001.55-.152.971-.286 1.24-.641-.284-1.125-.468-1.391-.53-.336-.286-.656-.55-.934-.775.95-.182 2.05-.13 2.584-.073zm2.932 1.578c-.86-.533-1.59-.697-2.073-.736.017-.089.03-.177.041-.267.574.114 1.367.199 2.196.273-.104.263-.15.51-.164.73zM3.916 3.96H3.88c.035-.143.066-.315.087-.516.372.22.744.433 1.078.603-.293-.053-.663-.087-1.13-.087zm14.172-.516c.021.201.053.373.087.516-.496-.005-.864.032-1.164.087.334-.17.706-.382 1.077-.603zm.156 6.91c-.171-.188-.364-.386-.57-.588.061-.017.12-.046.17-.09.054-.046.095-.103.121-.166l.013-.02c.077-.126.143-.254.205-.382.36-.01 1.357.079 2.619 1.14.083.07.185.106.289.106.077 0 .154-.02.224-.06.316-.182.237-.523.199-.687-.067-.293-.192-.836.282-1.489.069-.088.104-.2.093-.318-.036-.377-.322-.402-.754-.438-.515-.044-1.934-.166-2.623-.328-.005-.035-.006-.07-.012-.105-.003-.018-.006-.037-.012-.055-.033-.116-.115-.217-.222-.275-.246-.132-2.105-.316-3.565.004.437-.39 1.093-.868 1.807-1.014.172-.035.307-.167.347-.338.01-.043.014-.087.011-.13.003-.036 0-.073 0-.11.246-.085.786-.195 1.877-.134.175.011.343-.085.424-.243.103-.2.04-.385-.017-.547-.077-.225-.221-.64-.18-1.39.01-.115-.025-.235-.105-.329-.25-.295-.534-.122-.785.03-.383.235-1.497.914-2.025 1.094l-.008-.009c-.014-.014-.029-.027-.044-.039-.284-.22-1.235.08-2.039.488.014-.093.024-.187.024-.284 0-.853-.573-1.572-1.354-1.798.482-.5 1.187-.881 1.521-1.024L13.805 0c-.078.033-1.67.718-2.307 1.885-.166.059-.324.14-.468.245-.144-.105-.303-.186-.469-.245C9.924.718 8.333.033 8.254 0l-.35.828c.335.14 1.041.52 1.523 1.023-.781.225-1.355.945-1.355 1.798 0 .098.01.193.024.286-.804-.408-1.76-.71-2.043-.49-.016.012-.03.025-.044.04L6 3.492c-.528-.18-1.641-.859-2.025-1.092-.25-.153-.535-.327-.786-.032-.08.094-.115.213-.105.33.042.749-.102 1.164-.18 1.389-.056.162-.12.347-.017.547.082.158.25.254.425.243 1.083-.06 1.624.047 1.872.132 0 .044.001.082.004.113-.002.042.001.086.011.129.04.17.175.303.347.338.745.153 1.427.668 1.865 1.068-1.488-.393-3.53-.197-3.788-.058-.107.058-.189.16-.222.277-.005.018-.009.035-.011.053-.006.035-.007.07-.012.105-.689.162-2.108.284-2.623.328-.432.036-.718.061-.754.438-.011.118.024.23.093.318.474.653.35 1.196.282 1.489-.038.164-.117.505.199.687.07.04.147.06.224.06.103 0 .206-.036.29-.106 1.268-1.067 2.252-1.153 2.618-1.141.061.129.128.257.204.382l.013.021c.027.063.068.12.122.167.083.07.187.108.292.108.01 0 .02-.003.031-.003-.2.196-.387.389-.554.573C2.532 11.768.104 15.038.104 17.308c0 .638.318 1.103.872 1.275.152.048.316.07.489.07.605 0 1.316-.284 2.021-.785.249.153.997.56 1.904.56.284 0 .583-.041.888-.142-.16.414-.413.864-.746 1.312-.271.365.03.632.042.643.108.093.247.125.38.1.235-.022.694.251.938.464.083.073.189.112.296.112.055 0 .11-.01.164-.03.156-.062.265-.205.283-.372.074-.69.418-1.33.71-1.76.195.844.49 1.6.918 2.148.46.59 1.035.902 1.707.936v.007c.02 0 .04-.003.06-.004.02 0 .04.004.06.004v-.007c.672-.034 1.246-.346 1.707-.936.429-.549.723-1.305.919-2.15.29.429.635 1.067.709 1.762.018.167.127.31.284.371.052.021.108.031.163.031.107 0 .213-.039.296-.112.243-.213.7-.486.938-.464.131.025.272-.007.38-.1.012-.011.313-.278.042-.643-.333-.448-.586-.898-.746-1.312.305.1.604.143.888.143.897 0 1.64-.4 1.896-.556.743.522 1.463.778 2.041.777.165 0 .32-.02.458-.061.558-.165.89-.644.89-1.281 0-2.27-2.427-5.54-3.71-6.952z" mask="url(#pidtku9rcb)"/>
                </g>
            </g>
        </g>
    </g>
</svg>
