<svg xmlns="http://www.w3.org/2000/svg" xmlns:xlink="http://www.w3.org/1999/xlink" width="21" height="25" viewBox="0 0 21 25">
    <defs>
        <path id="jprb6whn2a" d="M0 0.013L20.124 0.013 20.124 24.609 0 24.609z"/>
    </defs>
    <g fill="none" fill-rule="evenodd">
        <g>
            <g>
                <g>
                    <g transform="translate(-56.000000, -420.000000) translate(1.000000, 36.000000) translate(55.000000, 384.000000) translate(0.000000, 0.113582)">
                        <mask id="l0m07ea26b" fill="#fff">
                            <use xlink:href="#jprb6whn2a"/>
                        </mask>
                        <path fill="white" d="M12.794 11.282V2.947c.67-.158 2.193-.625 3.84-1.858.206.052.427.106.666.164.585.14 1.203.293 1.787.464v1.24c-1.564 2.08-2.801 7.657-3.189 9.56l-3.104-1.235zm-1.065 0l-3.077 1.225c-.207-1.307-.724-4.249-1.513-6.663-.006-.102-.037-.193-.09-.268-.398-1.167-.816-2.047-1.242-2.618v-1.14c0-.044-.007-.088-.02-.132.704-.175 1.483-.377 2.12-.584 1.64 1.223 3.154 1.687 3.822 1.845v8.335zm-5.504 1.47l.576-4.266c.428 1.786.72 3.507.85 4.332l-1.426-.066zm4.128.193l1.347-.536c-.028.186-.063.365-.1.552l-.009.042-1.238-.058zm1.087 4.573l.432-.004c.226.212.675.555 1.374.745.219.445.46.88.718 1.295h-1.27c-.286 0-.519.233-.519.518 0 .286.233.519.519.519h1.98c.217.29.438.564.656.818l.024.027h-.93c-.286 0-.518.233-.518.519 0 .285.232.518.518.518h1.921c.41.39.845.759 1.275 1.082H6.01c1.2-.786 3.835-2.785 5.43-6.037zm-6.075.013c.092.004.182.007.27.007.968 0 1.87-.002 2.677-.005.043.331.327.587.67.587.344 0 .629-.259.67-.592l.614-.003c-1.851 3.405-4.815 5.2-5.75 5.702.451-1.66.736-3.575.85-5.696zM1.273 5.788h.017l.032-.002c2.06-.197 3.312-1.156 3.927-1.79.284.49.568 1.153.844 1.976l-.97 7.202c-.002.007-.002.014-.002.02l-.003.025c-.001.03.004.054.01.08l.002.016c.002.024.005.053.015.085.01.032.025.058.036.078l.013.024c.014.025.028.049.046.071.021.025.044.043.062.057l.02.017c.018.015.041.034.071.05.03.016.06.025.083.031l.022.008c.016.007.039.016.067.02.008.002.017.002.025.003l6.294.296c.01.004.024.01.04.012.148.936.384 1.854.704 2.736-.082-.072-.122-.122-.123-.122-.103-.136-.243-.204-.418-.205-.019 0-2.758.025-6.451.025-3.197 0-3.587-3.143-3.603-3.283l-.804-7.432.044.002zM19.079 23.3c-.322-.194-.889-.57-1.585-1.181-.046-.1-.216-.275-.691-.65-.434-.438-.848-.916-1.231-1.42-.019-.034-.057-.085-.132-.183-.06-.08-.13-.171-.178-.242-.448-.639-.845-1.32-1.178-2.025l-.006-.014c-.006-.014-.013-.033-.026-.054-.743-1.595-1.167-3.322-1.26-5.134l3.302 1.314c.141.057.307.047.442-.027.137-.076.231-.206.26-.359.042-.224.997-5.23 2.287-8.22-.008 4.89-.021 15.057-.004 18.195zM1.071 4.324l-.02-.181c-.012-.293.069-.6.182-.842l.042 1.385c-.107-.083-.173-.202-.204-.362zm1.18-1.662l.447 1.76c-.13.048-.259.09-.39.128L2.25 2.662zm.982-.342l.174-.045.52 1.497c-.09.065-.182.127-.277.187L3.233 2.32zm1.183-.298l.354-.086V2.97l-.017.02-.337-.969zm15.707 22.042c-.031-1.743-.008-16.423 0-20.88V1.387c0-.022-.004-.04-.007-.048.004-.232-.136-.433-.353-.502-.733-.234-1.523-.425-2.22-.593-.322-.078-.627-.151-.889-.22-.018-.006-.034-.006-.045-.006-.034-.005-.065-.006-.104-.005-.03 0-.058.002-.086.007-.034.007-.062.019-.094.032-.022.01-.053.022-.083.042-.01.003-.025.01-.04.022-1.849 1.449-3.563 1.815-3.94 1.88-.378-.065-2.092-.431-3.941-1.88-.02-.015-.04-.023-.046-.025-.033-.02-.064-.036-.096-.048-.03-.011-.06-.019-.092-.024-.034-.006-.066-.008-.1-.007-.034 0-.067.005-.1.013-.012 0-.032.002-.057.01-.82.287-2.052.587-3.243.877-2.053.5-3.236.8-3.694 1.155-.466.36-.814 1.09-.87 1.82-.02.07-.027.137-.02.203l.025.23.003.046c.002.031.004.062.009.092l.004.016.958 8.855c.004.034.405 3.287 3.333 4.047-.126 2.511-.498 4.709-1.106 6.532l-.026.08v.085c0 .13.055.258.152.36l.014.014c.076.076.164.127.255.147.057.013.121.014.23-.003h15.583c.054.012.1.017.138.017.225 0 .424-.13.506-.332.026-.06.04-.125.042-.19v-.023z" mask="url(#l0m07ea26b)"/>
                    </g>
                    <path fill="white" d="M14.829 10.324c0 .062-.05.112-.112.112-.061 0-.111-.05-.111-.112s.05-.112.111-.112c.062 0 .112.05.112.112m-.112-1.148c-.633 0-1.148.515-1.148 1.148 0 .633.515 1.148 1.148 1.148.633 0 1.149-.515 1.149-1.148 0-.633-.516-1.148-1.149-1.148M15.692 6.991c0 .062-.05.112-.112.112s-.112-.05-.112-.112.05-.112.112-.112.112.05.112.112m-.112-1.148c-.633 0-1.148.515-1.148 1.148 0 .633.515 1.148 1.148 1.148.633 0 1.148-.515 1.148-1.148 0-.633-.515-1.148-1.148-1.148M16.79 3.717c0 .061-.05.111-.112.111s-.112-.05-.112-.111c0-.062.05-.112.112-.112.061 0 .112.05.112.112m-.112-1.149c-.633 0-1.148.516-1.148 1.149s.515 1.148 1.148 1.148c.633 0 1.148-.515 1.148-1.148 0-.633-.515-1.149-1.148-1.149M9.901 10.324c0 .062-.05.112-.111.112-.062 0-.112-.05-.112-.112s.05-.112.112-.112c.061 0 .111.05.111.112m-1.26 0c0 .633.515 1.148 1.149 1.148.633 0 1.148-.515 1.148-1.148 0-.633-.515-1.148-1.148-1.148-.634 0-1.149.515-1.149 1.148M8.815 6.991c0-.062.05-.112.112-.112.061 0 .111.05.111.112s-.05.112-.111.112c-.062 0-.112-.05-.112-.112m-1.036 0c0 .633.515 1.148 1.148 1.148.633 0 1.148-.515 1.148-1.148 0-.633-.515-1.148-1.148-1.148-.633 0-1.148.515-1.148 1.148M7.94 3.717c0 .061-.05.111-.111.111-.062 0-.112-.05-.112-.111 0-.062.05-.112.112-.112.061 0 .111.05.111.112m-1.26 0c0 .633.516 1.148 1.149 1.148s1.148-.515 1.148-1.148c0-.633-.515-1.149-1.148-1.149-.633 0-1.148.516-1.148 1.149M16.51 18.295c-.372 0-.675.303-.675.675 0 .373.303.676.675.676.373 0 .676-.303.676-.676 0-.372-.303-.675-.676-.675M18.131 19.903c-.372 0-.675.303-.675.675 0 .372.303.675.675.675.372 0 .675-.303.675-.675 0-.372-.303-.675-.675-.675M8.415 19.206c0-.373-.303-.675-.675-.675-.372 0-.675.302-.675.675 0 .372.303.675.675.675.372 0 .675-.303.675-.675M6.315 19.903c-.372 0-.675.303-.675.675 0 .372.303.675.675.675.373 0 .675-.303.675-.675 0-.372-.302-.675-.675-.675M14.69 13.99c0-.156-.128-.283-.284-.283h-.549c-.156 0-.283.127-.283.283 0 .156.127.283.283.283h.55c.155 0 .282-.127.282-.283M15.18 15.775c0-.157-.128-.283-.284-.283h-.549c-.156 0-.283.126-.283.283 0 .156.127.283.283.283h.55c.155 0 .282-.127.282-.283M15.563 17.256h-.549c-.156 0-.283.127-.283.283 0 .156.127.283.283.283h.549c.156 0 .283-.127.283-.283 0-.156-.127-.283-.283-.283" transform="translate(-56.000000, -420.000000) translate(1.000000, 36.000000) translate(55.000000, 384.000000)"/>
                </g>
            </g>
        </g>
    </g>
</svg>
