<svg xmlns="http://www.w3.org/2000/svg" xmlns:xlink="http://www.w3.org/1999/xlink" width="23" height="13" viewBox="0 0 23 13">
    <defs>
        <path id="0tizy5em5a" d="M0 0.035L22.91 0.035 22.91 11.984 0 11.984z"/>
    </defs>
    <g fill="none" fill-rule="evenodd">
        <g>
            <g>
                <g>
                    <g transform="translate(-55.000000, -568.000000) translate(1.000000, 36.000000) translate(54.000000, 532.000000) translate(0.000000, 0.085584)">
                        <mask id="fatmuak6jb" fill="#fff">
                            <use xlink:href="#0tizy5em5a"/>
                        </mask>
                        <path fill="white" d="M2.632 6.004c0-.986-.686-1.842-1.645-2.071V2.602c.779-.186 1.399-.806 1.584-1.584h17.762c.185.778.805 1.398 1.584 1.584v1.33c-.194.047-.385.123-.57.227-.492.286-.848.747-1.001 1.3-.149.557-.072 1.133.214 1.62.29.502.793.873 1.357 1.009v1.32c-.779.185-1.399.805-1.584 1.583H2.57c-.185-.778-.805-1.398-1.584-1.584v-1.33c.959-.23 1.645-1.087 1.645-2.073m19.208-.987h.001c.17-.1.37-.152.575-.152.277 0 .494-.217.494-.494V2.18c0-.28-.217-.5-.494-.5-.634 0-1.15-.515-1.15-1.15 0-.277-.217-.494-.494-.494H2.138c-.277 0-.494.217-.494.494 0 .635-.516 1.15-1.15 1.15-.277 0-.494.217-.494.495v2.192c0 .277.217.493.494.493.634 0 1.15.517 1.15 1.151S1.128 7.16.494 7.16c-.277 0-.494.217-.494.494v2.192c0 .277.217.494.494.494.634 0 1.15.516 1.15 1.15 0 .277.217.494.494.494h18.634c.277 0 .494-.217.494-.494 0-.634.516-1.15 1.15-1.15.277 0 .494-.217.494-.494V7.654c0-.277-.217-.494-.494-.494-.413 0-.787-.215-.998-.574-.153-.268-.194-.577-.116-.871.078-.297.269-.545.538-.698" mask="url(#fatmuak6jb)"/>
                    </g>
                    <path fill="white" d="M12.641 7.054l.226 1.308-1.172-.616c-.07-.04-.152-.062-.235-.062-.083 0-.163.021-.228.059l-1.178.62.225-1.306c.03-.156-.024-.323-.14-.44l-.952-.927 1.314-.193c.154-.02.29-.115.378-.269l.587-1.19.584 1.186c.07.151.212.253.376.272l1.317.193-.957.924c-.12.11-.175.279-.145.441zm-3.39.089l-.348 2.043c-.03.191.048.377.202.483.154.106.357.12.517.036l1.833-.96 1.826.961c.07.04.152.062.234.062.113 0 .224-.039.29-.097.148-.11.225-.298.196-.483l-.348-2.04 1.481-1.44c.14-.129.19-.329.131-.506-.057-.182-.21-.313-.401-.343l-2.052-.296-.92-1.86c-.08-.16-.25-.261-.443-.261-.192 0-.362.1-.443.262l-.92 1.859-2.052.296c-.184.029-.335.157-.394.334-.06.18-.01.38.127.506L9.25 7.143zM18.854 10.974c.276 0 .493-.217.493-.494V1.71c0-.276-.217-.493-.493-.493-.277 0-.494.217-.494.494v8.769c0 .277.217.494.494.494M17.21 10.974c.276 0 .493-.217.493-.494V1.71c0-.276-.217-.493-.494-.493-.276 0-.493.217-.493.494v8.769c0 .277.217.494.493.494M5.7 10.974c.277 0 .494-.217.494-.494V1.71c0-.276-.217-.493-.494-.493s-.493.217-.493.494v8.769c0 .277.216.494.493.494M4.056 10.974c.277 0 .494-.217.494-.494V1.71c0-.276-.217-.493-.494-.493s-.494.217-.494.494v8.769c0 .277.217.494.494.494" transform="translate(-55.000000, -568.000000) translate(1.000000, 36.000000) translate(54.000000, 532.000000)"/>
                </g>
            </g>
        </g>
    </g>
</svg>
