<svg xmlns="http://www.w3.org/2000/svg" xmlns:xlink="http://www.w3.org/1999/xlink" width="22" height="31" viewBox="0 0 22 31">
    <defs>
        <path id="x0yb0n4tpa" d="M0 0.016L21.956 0.016 21.956 30.934 0 30.934z"/>
    </defs>
    <g fill="none" fill-rule="evenodd">
        <g>
            <g>
                <g>
                    <path fill="white" d="M11.557 3.907c.052-.166.166-.301.32-.382.095-.049.196-.073.3-.073.245 0 .467.134.58.351.08.154.095.33.043.497-.053.166-.167.302-.321.382-.094.05-.195.074-.3.074-.244 0-.466-.135-.579-.352-.08-.154-.096-.33-.043-.497m.622 1.638c.23 0 .46-.056.664-.163.705-.366.98-1.238.614-1.943-.249-.479-.74-.777-1.28-.777-.229 0-.458.057-.663.163-.342.178-.594.478-.71.845-.116.367-.082.757.096 1.099.249.479.74.776 1.28.776M12.072 10.06c.109.31.4.522.737.522.337 0 .628-.213.737-.522.142.058.315.023.425-.087.074-.074.115-.173.115-.279 0-.105-.04-.204-.115-.279-.31-.31-.723-.481-1.162-.481-.44 0-.852.17-1.162.481-.074.075-.115.174-.115.279 0 .106.04.205.115.279.116.115.283.145.425.087M8.41 10.06c.109.31.4.522.737.522.306 0 .575-.176.704-.44.106.224.115.465.116.515l-.215 1.878 1.258-.007c.106 0 .204-.042.279-.117.074-.075.114-.174.113-.28 0-.216-.178-.392-.396-.392l-.37.002.12-1.045c0-.03.025-.739-.43-1.263l-.006-.005-.011-.013c-.31-.31-.723-.481-1.162-.481-.439 0-.851.17-1.161.481-.075.075-.116.174-.116.279 0 .106.041.205.116.279.115.115.282.145.424.087" transform="translate(-55.000000, -624.000000) translate(1.000000, 36.000000) translate(54.000000, 588.000000)"/>
                    <g transform="translate(-55.000000, -624.000000) translate(1.000000, 36.000000) translate(54.000000, 588.000000) translate(0.000000, 0.080507)">
                        <mask id="qy62r9ngcb" fill="#fff">
                            <use xlink:href="#x0yb0n4tpa"/>
                        </mask>
                        <path fill="white" d="M1.265 19.997l-.068.01c-.219-.1-.347-.28-.392-.552-.082-.494.134-1.109.4-1.412l.06 1.954zm4.017 10.148h11.45v-1.788H5.282v1.788zm9.403-2.676h1.062v-.485h-1.062v.485zM4.7 17.307l.049-.008v.107l-.05-.099zm12.513.1v-.108l.05.008-.05.1zm2.759.338l-.065 2.108c-.23-.058-.448-.128-.652-.207l.493-1.942.224.04zm-1.71 1.385l.547-1.572.156.023-.436 1.715c-.092-.054-.181-.11-.267-.166zm-.718-.587l.32-.672-.255.736-.065-.064zm-2.702 6.37c.33-1.721.977-4.44 1.987-5.979.438.484 1.306 1.24 2.714 1.639-1.873 1.078-3.661 3.06-4.7 4.34zm-3.863.651l1.585.631h-3.17l1.585-.63zm-.02-10.034l.02-.002.021.002h.28l-.041.02-.176.081-.085.379-.082-.379-.177-.082-.041-.02h.28zm.572 1.63l.218-.98c.757-.368 1.328-.748 1.7-1.13l.402.637c-.895.67-1.727 1.159-2.32 1.473zm-1.322-.98l.218.98c-.594-.315-1.428-.804-2.325-1.477l.406-.634c.373.382.944.763 1.7 1.131zm1.176 8.697V18.12c.5-.24 1.673-.846 2.984-1.835.471.345 1.145.622 2.054.844v1.017c-1.536 1.975-2.32 6.261-2.55 7.72l-2.488-.99zM7.652 7.817c.467-.006.965-.12 1.493-.242.59-.136 1.201-.277 1.838-.286h.065c.615 0 1.207.119 1.782.235.513.103.998.2 1.451.2h.048l.17-.003c-.098.488-.328 1.656-.428 2.428l-.004.033c-.03.234-.044.406-.044.525 0 .553-.388 3.003-2.175 4.034h-.849l-.02.001-.022-.001h-.85c-1.786-1.03-2.174-3.48-2.174-4.034 0-.124-.016-.31-.047-.553l-.003-.02c-.095-.732-.301-1.792-.407-2.316l.176-.001zm.039-3.719c.156-.52.292-.97.547-1.211l.133-.107c.021-.018.043-.036.082-.06l.101-.065c.02-.013.04-.027.07-.041l.086-.046c.047-.025.096-.051.158-.076l.062-.026.074-.032.166-.06c.237-.078.495-.142.765-.19.326-.054.642-.084.939-.09h.06c.305 0 .637.028.988.081.404.067.752.165 1.066.3.043.018.085.04.13.063l.017.01.08.04c.023.013.044.027.068.042l.033.02c.02.014.041.027.061.039l.01.006c.008.004.017.01.033.023l.11.086.088.08c.041.041.084.096.133.171.16.254.26.555.367.874l.06.18c.153.456.295.833.495 1.186.106.19.233.37.378.538.158.186.34.334.484.443.304.217.657.38 1.046.483.077.02.154.04.232.056-.98.067-1.865.11-2.496.12h-.036c-.375 0-.822-.09-1.296-.185-.583-.118-1.244-.25-1.937-.25h-.075c-.722.01-1.404.167-2.006.306-.485.112-.943.217-1.325.222-.64.008-1.566-.012-2.575-.054C6.953 6.55 7.372 5.158 7.69 4.098zm8.353 1.497c-.108-.085-.233-.19-.336-.314-.116-.14-.208-.273-.283-.408-.165-.295-.289-.629-.423-1.038l-.036-.109c-.053-.161-.108-.328-.17-.494-.069-.183-.166-.422-.31-.649-.085-.128-.164-.229-.252-.317l-.05-.048c-.032-.034-.061-.057-.104-.09l-.106-.081c-.046-.04-.098-.073-.14-.1l-.09-.055c-.034-.021-.068-.043-.126-.074-.03-.014-.058-.03-.088-.045-.073-.037-.144-.073-.209-.099-.373-.16-.786-.274-1.264-.35-.411-.063-.816-.09-1.2-.08-.346.01-.695.049-1.067.117-.307.056-.608.138-.897.242l-.186.072c-.04.017-.078.035-.114.052l-.04.019c-.088.037-.165.08-.242.123l-.054.03c-.058.03-.11.064-.168.105l-.066.045c-.067.042-.119.085-.166.126l-.22.187.005.005c-.371.387-.535.93-.707 1.504l-.08.265-.048.149-.023.07-.051.144-.023.064c-.024.064-.05.128-.08.2-.027.062-.056.125-.09.192l-.015.03-.01.02c-.025.045-.05.09-.076.133l-.036.06c-.026.041-.054.082-.083.121l-.013.018-.025.035c-.038.05-.079.099-.121.145l-.015.017c-.047.05-.098.099-.156.15l-.025.019-.02.016c-.046.037-.089.07-.132.1l-.065.043c-.044.027-.092.055-.143.083l-.014.007-.056.03c-.059.029-.124.057-.193.085l-.024.01-.01.004c.214-.353.408-.77.612-1.209C6.753 3.08 7.79.85 10.893.805h.091c3.035 0 4.121 2.178 4.995 3.928.198.398.402.807.624 1.155-.209-.077-.4-.177-.56-.293zm-5.471 19.281l-2.488.99c-.23-1.459-1.015-5.745-2.551-7.72v-1.017c.909-.222 1.583-.499 2.054-.844 1.315.992 2.49 1.6 2.99 1.838l-.005 6.753zM8.118 27.47h5.778v-.485H8.118v.485zm7.304-19.467c-.047.718-.211 1.564-.537 2.065l.283-1.654.195-.427.059.016zm-8.829-.016l.195.427.284 1.656c-.327-.502-.49-1.348-.538-2.067l.06-.016zm-4.18 12.587c1.409-.4 2.277-1.155 2.715-1.639 1.01 1.54 1.656 4.257 1.986 5.98-1.04-1.281-2.828-3.264-4.7-4.341zm1.934-1.97l-.255-.733.32.67-.065.062zm-1.2-1.045l.546 1.568c-.084.055-.173.11-.266.165l-.435-1.71.156-.023zm-.445 2.085c-.204.08-.423.15-.652.208l-.065-2.106c.069-.014.143-.027.224-.041l.493 1.94zm3.565 7.826H7.33v-.485H6.267v.485zm14.884-8.014c-.045.272-.173.452-.392.551l-.068-.009.06-1.954c.266.304.482.918.4 1.412zm-.026-2.14c-.326-.252-1.01-.362-2.19-.536-1.447-.214-3.426-.505-4.252-1.251l-.879-1.395-.077-.126c.76-1.129.987-2.385 1.047-2.828 1.386-.587 1.447-3.177 1.45-3.474v-.062c.85-.05 1.76-.12 2.637-.201.33-.03.574-.342.557-.71-.015-.334-.241-.578-.562-.62v-.008l-.243.002h-.481l-.194-.003c-.443-.098-.819-.851-1.254-1.723-.919-1.842-2.177-4.365-5.7-4.365l-.101.001c-3.6.05-4.802 2.636-5.679 4.524-.458.986-.82 1.764-1.313 1.771l-.478.008-.2.002h-.027c-.364 0-.637.267-.649.635-.012.373.242.683.577.705.88.056 1.783.1 2.62.127.014.535.15 2.841 1.448 3.391.06.443.288 1.7 1.049 2.83l-.958 1.519c-.826.746-2.805 1.037-4.252 1.25-1.18.175-1.864.285-2.19.537-.567.439-.936 1.478-.805 2.269.097.583.44 1.007.959 1.192l.04-.088-.031.091.013.006c2.472.848 5.171 4.177 6.105 5.41H5.478v1.373h-.985v3.367h13.028v-3.367h-.985v-1.373h-1.693c.935-1.233 3.634-4.562 6.106-5.41l.016-.007c.525-.186.868-.61.965-1.194.13-.791-.238-1.83-.805-2.269z" mask="url(#qy62r9ngcb)"/>
                    </g>
                    <path fill="white" d="M12.114 18.566c-.223 0-.404.181-.404.404 0 .222.181.403.404.403.222 0 .403-.18.403-.403 0-.223-.18-.404-.403-.404M12.114 21.11c-.223 0-.404.181-.404.404 0 .223.181.404.404.404.222 0 .403-.181.403-.404 0-.223-.18-.404-.403-.404M12.114 23.655c-.223 0-.404.18-.404.403 0 .223.181.404.404.404.222 0 .403-.181.403-.404 0-.222-.18-.403-.403-.403M9.842 19.373c.223 0 .404-.18.404-.403 0-.223-.181-.404-.404-.404-.222 0-.403.18-.403.404 0 .222.18.403.403.403M9.842 21.918c.223 0 .404-.181.404-.404 0-.223-.181-.404-.404-.404-.222 0-.403.181-.403.404 0 .223.18.404.403.404M9.842 24.462c.223 0 .404-.181.404-.404 0-.222-.181-.403-.404-.403-.222 0-.403.18-.403.403 0 .223.18.404.403.404" transform="translate(-55.000000, -624.000000) translate(1.000000, 36.000000) translate(54.000000, 588.000000)"/>
                </g>
            </g>
        </g>
    </g>
</svg>
