<svg xmlns="http://www.w3.org/2000/svg" xmlns:xlink="http://www.w3.org/1999/xlink" width="22" height="22" viewBox="0 0 22 22">
    <defs>
        <path id="jno4yc4loa" d="M0 0.097L21.903 0.097 21.903 22 0 22z"/>
    </defs>
    <g fill="none" fill-rule="evenodd">
        <g>
            <g>
                <g>
                    <g transform="translate(-55.000000, -496.000000) translate(1.000000, 36.000000) translate(54.000000, 460.000000) translate(0.000000, 0.034515)">
                        <mask id="gm6i86oh9b" fill="#fff">
                            <use xlink:href="#jno4yc4loa"/>
                        </mask>
                        <path fill="white" d="M20.117 14.7l-.837-.346c.355-.89.573-1.85.623-2.853l.905.03c-.054 1.115-.296 2.18-.69 3.17zm-2.097 3.226l-.64-.64c.678-.7 1.245-1.508 1.668-2.397l.823.378c-.469.988-1.097 1.885-1.851 2.66zM7.655 19.381c.89.354 1.85.57 2.854.62l-.031.905c-1.115-.053-2.18-.294-3.17-.688l.347-.837zM4.72 17.483c.7.678 1.508 1.243 2.398 1.666l-.376.824c-.988-.468-1.886-1.096-2.662-1.85l.64-.64zm-1.992-2.87c.394.903.93 1.731 1.584 2.451l-.661.62c-.727-.799-1.323-1.718-1.76-2.722l.837-.35zm-.737-3.433c.014 1.013.197 1.987.523 2.893l-.85.317c-.36-.999-.562-2.071-.58-3.188l.907-.022zm-.214-3.765l.838.346c-.353.892-.569 1.851-.617 2.855l-.905-.03c.052-1.116.29-2.182.684-3.17zm2.09-3.23l.643.64c-.677.7-1.242 1.51-1.664 2.4l-.825-.376c.467-.988 1.094-1.887 1.846-2.663zM14.23 2.71c-.891-.352-1.852-.567-2.856-.613l.03-.906c1.115.05 2.181.289 3.17.68l-.344.839zm2.939 1.892c-.702-.676-1.511-1.24-2.402-1.661l.374-.826c.989.466 1.888 1.092 2.665 1.844l-.637.643zm1.996 2.865c-.395-.903-.934-1.73-1.589-2.449l.66-.62c.73.798 1.328 1.716 1.765 2.72l-.836.35zm-4.31 12.644l-.348-.837c.904-.392 1.732-.929 2.454-1.582l.618.663c-.8.726-1.72 1.322-2.724 1.756zM7.029 1.994l.35.837c-.904.394-1.731.932-2.451 1.586l-.62-.661c.799-.728 1.717-1.325 2.721-1.762zm3.759-.81l.032.905c-1.016.015-1.992.198-2.9.526l-.32-.849c.998-.361 2.07-.564 3.188-.582zm.163 17.745c-4.345 0-7.88-3.535-7.88-7.88 0-4.346 3.535-7.881 7.88-7.881 4.346 0 7.881 3.535 7.881 7.88 0 4.346-3.535 7.881-7.88 7.881zm.142 1.985l-.01-.906c1.01-.014 1.98-.196 2.883-.52l.317.85c-1 .36-2.072.56-3.19.576zm8.817-10.036c-.02-1.006-.203-1.971-.528-2.87l.848-.32c.363.998.567 2.072.586 3.19h-.906zM10.95.098C4.913.097 0 5.01 0 11.047 0 17.089 4.913 22 10.951 22c6.039 0 10.952-4.913 10.952-10.951C21.903 5.01 16.99.097 10.95.097z" mask="url(#gm6i86oh9b)"/>
                    </g>
                    <path fill="white" d="M13.674 14.68V6.814h.845v8.54h-1.095l-5.196-7.85v7.85h-.845v-8.54h1.095l5.196 7.868zm-1.082-3.602L9.061 5.731H6.3v10.704h3.01V11.1l3.531 5.336h2.76V5.731h-3.01v5.347z" transform="translate(-55.000000, -496.000000) translate(1.000000, 36.000000) translate(54.000000, 460.000000)"/>
                </g>
            </g>
        </g>
    </g>
</svg>
