<svg xmlns="http://www.w3.org/2000/svg" xmlns:xlink="http://www.w3.org/1999/xlink" width="22" height="30" viewBox="0 0 22 30">
    <defs>
        <path id="923746y0ma" d="M0 0.02L21.92 0.02 21.92 29.955 0 29.955z"/>
    </defs>
    <g fill="none" fill-rule="evenodd">
        <g>
            <g>
                <g>
                    <g transform="translate(-55.000000, -867.000000) translate(1.000000, 36.000000) translate(54.000000, 831.000000) translate(0.000000, 0.078277)">
                        <mask id="aixq8npedb" fill="#fff">
                            <use xlink:href="#923746y0ma"/>
                        </mask>
                        <path fill="#72849A" d="M10.945.103l-.001.042-.002-.029.003-.013zM2.06 18.147c-.442-.18-.891-.408-1.147-.582.048-.218.146-.55.27-.832.047-.106.085-.179.113-.23l2.105.924c-.018.073-.053.192-.127.374-.096.236-.217.475-.305.63-.211-.031-.537-.133-.91-.284zm-.31-2.41c.276-.965.601-1.88.966-2.888l.011-.03-.092-.034.096.023.075-.209c.242-.67.463-1.32.64-1.841l.034-.098c.167-.49.34-.996.527-1.52.14-.391.264-.81.382-1.228-.058 1.475-.003 3.095.051 4.67.02.588.043 1.254.055 1.868-.11.293-.342.73-.548 1.116-.196.368-.358.676-.466.93l-1.731-.759zM13.324 4.233c.179-.532.282-1.02.306-1.452.021-.373-.015-.72-.109-1.035.04.038.077.077.113.117.713 1.031.859 1.742.943 2.532l-1.253-.162zm-2.319 2.608c-.222 0-.403.181-.403.404v2.56c-.054 0-.118-.001-.192-.004l.287-4.304c.167.009.362.004.545-.016l.103 1.547c-.072-.112-.197-.187-.34-.187zm.403 2.964V7.977l.137 1.826-.137.002zm.116 16.092l-1.018-.01c.024-1.543.03-3.56.022-6.161-.014-3.928-.063-7.851-.08-9.115.246.005.397-.002.425-.003.023-.002.041-.007.056-.011.045.012.114.012.163-.002.018.006.04.011.065.013.028 0 .18.008.425.003-.014 1.013-.066 5.085-.08 9.115-.009 2.562-.001 4.638.022 6.171zM6.34 8.302c-.68-.759-.926-1.81-.733-3.124.13-.494.298-.874.502-1.132.143-.132.286-.24.436-.329-.077.33-.131.686-.175 1.145l-.02.2c-.008.085.023.17.085.229.061.06.15.088.232.077l1.048-.135 1.369-.157c.154.078.439.207.813.302l-.29 4.36c-1.04-.127-2.413-.482-3.267-1.436zm1.988 11.222c0 .065-.007.129-.02.193-.012-.064-.018-.128-.018-.193s.006-.13.019-.193c.012.064.019.128.019.193zm-1.991-1.178c-.222 0-.403.181-.403.403v7.512c-.151-.028-.178-.04-.33-.102l-.04-.016c-.19-.078-.19-.078-.19-.295l.007-10.462c.004-.012.008-.03.008-.052 0-.222-.002-.47-.007-.778v-1.018c0-.041-.01-.082-.03-.121-.008-.284-.018-.571-.028-.866-.048-1.395-.101-2.96-.058-4.379.136.245.294.469.473.668 1.056 1.18 2.688 1.588 3.902 1.718.044 3.091.075 6.37.084 9.312-.07-.06-.16-.096-.258-.096-.132 0-.26.025-.382.073.017-.108.025-.216.025-.323 0-.511-.182-1.008-.512-1.398-.077-.091-.19-.144-.308-.144-.12 0-.231.053-.308.143-.33.391-.513.888-.513 1.399 0 .107.009.215.025.323-.12-.048-.25-.073-.381-.073-.168 0-.312.102-.373.248v-1.273c0-.222-.18-.403-.403-.403zm3.243 10.769c-.365-.043-.883-.108-1.294-.161v-4.63c0-.222-.18-.403-.403-.404-.221 0-.402.18-.403.402-.005 1.305-.015 2.97-.025 3.694-.23-.045-.503-.156-.715-.26v-7.424c.061.146.205.249.373.249.07 0 .133.03.176.08-.167.048-.29.203-.29.386 0 .223.181.404.404.404h.483v.492c0 .222.181.403.404.403.222 0 .403-.18.403-.403v-.492h.484c.222 0 .403-.181.403-.404 0-.183-.122-.337-.29-.387.045-.049.108-.08.177-.08.1 0 .189-.037.26-.097.008 4.208-.032 7.624-.147 8.632zm2.962-27.448c.034.058.064.123.09.197-.591-.167-1.177-.243-1.782-.234-.521.011-1.048.09-1.606.242.028-.077.059-.145.094-.205.154-.263.403-.462.739-.59.24-.092.531-.15.863-.17.332.02.622.077.863.17.336.128.585.327.739.59zM10.293 4.64c-.36-.067-.637-.182-.787-.254.009-.048.005-.097-.013-.144-.2-.522-.318-.997-.354-1.415.612-.199 1.178-.301 1.726-.312l.104-.001c.588 0 1.168.104 1.77.317-.036.416-.154.889-.353 1.408-.582.37-1.22.515-1.9.43-.043-.019-.089-.03-.134-.033-.022-.002-.04 0-.059.004zm3.452 19.686v2.401c-.209.032-.4.058-.569.078-.366.042-.645.06-.828.056-.037-1.647-.048-3.916-.043-6.376.07.06.16.097.26.097.069 0 .132.03.176.08-.168.048-.29.203-.29.386 0 .223.18.404.403.404h.484v.492c0 .222.18.403.403.403.223 0 .404-.18.404-.403v-.492h.483c.223 0 .404-.181.404-.404 0-.183-.123-.338-.29-.387.043-.05.107-.08.176-.08.168 0 .312-.102.373-.248v6.11c-.226.048-.478.098-.728.145-.005-.74-.01-1.583-.012-2.265 0-.221-.182-.402-.404-.402-.222 0-.402.182-.402.405zm-.004-4.801c0-.065.007-.13.02-.193.012.064.019.128.019.193s-.007.13-.02.193c-.012-.064-.019-.128-.019-.193zm-1.096-14.5c.037.026.08.043.127.048l2.443.296c.085.01.169-.018.23-.078.06-.06.091-.142.083-.227l-.034-.367c-.028-.303-.057-.613-.11-.93l.085.04.031.014c.378.171.507.23.636.455.141.376.253.842.34 1.416.066 1.077-.198 1.955-.783 2.61-.872.974-2.287 1.326-3.358 1.447L12.038 5.3c.207-.073.41-.165.607-.276zm.633 22.658c.143-.016.3-.037.467-.062v1.334c-.41.053-.928.118-1.294.16-.031-.272-.058-.735-.08-1.378.247.006.55-.012.907-.054zm3.342-12.257l.001.003c-.011.695-.013 1.979-.015 3.338l-.001.36c-.004 2.409-.01 5.707-.016 6.675-.003.226-.043.255-.067.273-.082.06-.255.12-.425.168V18.75c0-.222-.18-.403-.403-.403-.222 0-.403.181-.403.403v1.273c-.061-.145-.205-.248-.373-.248-.131 0-.26.025-.381.073.016-.108.025-.216.025-.323 0-.511-.182-1.008-.513-1.399-.074-.087-.186-.137-.308-.137s-.234.05-.308.138c-.33.39-.512.887-.512 1.398 0 .107.008.215.025.323-.121-.048-.25-.073-.382-.073-.098 0-.187.037-.257.095.01-3.146.043-6.54.083-9.31 1.214-.131 2.846-.538 3.902-1.719.145-.161.276-.336.391-.523.04 1.41.006 2.97-.024 4.358-.024 1.047-.041 1.913-.04 2.73l.001.02zM8.248 2.781c.025.432.128.92.306 1.452l-1.24.16c.052-.352.12-.643.218-.93.158-.46.403-.932.762-1.465-.046.244-.061.506-.046.783zm7.043 24.565v.41c-.212.104-.486.215-.715.26l-.006-.531c.285-.052.534-.101.72-.14zm3.806-8.969c-.045-.089-.1-.205-.163-.34-.101-.218-.213-.469-.301-.677l1.953-.878c.073.175.174.434.259.673.059.165.109.313.143.425-.44.306-1.367.717-1.891.797zM17.558 8.081c.165.466.34.966.527 1.5.895 2.56 1.825 5.282 2.03 5.946.021.068.038.125.051.173l-1.769.796c-.116-.24-.284-.53-.473-.853l-.003-.006c-.16-.271-.34-.578-.416-.741.005-.68.02-1.426.035-2.086l.002-.126c.032-1.468.067-3.106.016-4.603zm4.12 8.777c-.138-.388-.332-.875-.42-1.013l-.012-.021c-.023-.04-.077-.086-.078-.086-.035-.03-.068-.057-.1-.081-.019-.08-.05-.204-.108-.391-.213-.684-1.147-3.421-2.04-5.976-.463-1.325-1.303-3.71-1.731-4.812-.394-1.014-.568-1.121-1.325-1.464-.146-.066-.292-.133-.475-.222-.27-.132-.337-.278-.46-.543-.06-.13-.128-.275-.227-.437-.112-.183-.244-.36-.392-.527-.01-.014-.02-.022-.02-.021-.317-.35-.696-.63-1.126-.83-.624-.291-1.375-.43-2.236-.412L10.921.02l-.015.003C8.482.059 7.888.959 7.201 2l-.182.274c-.243.357-.262.365-.407.426-.1.041-.234.098-.441.212-1.542.853-2.043 2.648-2.528 4.386-.143.515-.292 1.048-.47 1.545-.188.529-.37 1.064-.563 1.63-.225.66-.428 1.253-.635 1.826l-.006.016h-.001l-.032.09-.006.024c-.016.036-.03.077-.048.124-.366 1.013-.744 2.06-1.048 3.156-.167.13-.322.354-.46.666-.22.501-.374 1.127-.374 1.376v.064c0 .073.028.142.078.194l.045.048c.278.29 1.026.674 1.604.908.485.198 1.153.416 1.572.341.04-.006.098-.034.1-.034.089-.043.173-.13.256-.264.115-.184.301-.537.439-.878.211-.524.255-.9.134-1.152l-.002-.003c.05-.126.162-.346.27-.555l-.007 9.536c0 .567.137.71.642.946l.055.026c.282.13.346.153.747.229v.838c0 .142.076.275.198.347.076.045.734.425 1.348.49v.475c0 .202.15.374.351.4.16.021 1.573.206 2.01.246.116.01.242-.035.325-.112.12-.11.232-.215.3-2.222.174-.204.148-.518.13-.733l-.006-.074h.847c.002.067.007.136.015.206.022.179.054.298.107.394.068 2.207.184 2.315.307 2.429.075.07.187.113.292.113l.034-.001c.45-.041 1.946-.238 2.01-.246.2-.026.35-.198.35-.4v-.475c.597-.063 1.223-.416 1.348-.49.122-.072.198-.205.198-.347v-.836c.396-.104.718-.202.951-.375.294-.217.42-.51.424-.978.007-.935.012-3.937.016-6.586v-.454c.002-.794-.005-1.51-.013-2.14.082.144.16.282.206.374l-.013.02c-.043.072-.052.158-.025.237l.024.07c.051.15.277.676.464 1.08.27.582.353.675.388.715l.039.042c.042.047.1.079.162.089l.055.01c.815.135 2.569-.747 3.018-1.207l.047-.047c.051-.053.08-.123.08-.197v-.068c-.001-.143-.082-.442-.242-.887z" mask="url(#aixq8npedb)"/>
                    </g>
                    <path fill="#72849A" d="M7.115 12.682c0-.065.007-.129.02-.192.012.063.018.127.018.192s-.006.13-.019.193c-.012-.063-.019-.128-.019-.193m0 2.823c.222 0 .403-.181.403-.403v-.493h.484c.223 0 .404-.18.404-.403 0-.183-.123-.338-.29-.387.043-.05.107-.08.176-.08.223 0 .404-.18.404-.403 0-.223-.181-.404-.404-.404-.131 0-.26.025-.382.073.017-.108.026-.216.026-.323 0-.51-.182-1.007-.513-1.398-.074-.088-.186-.138-.308-.138s-.234.05-.308.138c-.33.39-.512.887-.512 1.398 0 .107.008.215.025.324-.121-.049-.25-.074-.382-.074-.223 0-.404.181-.404.404 0 .222.181.403.404.403.07 0 .133.03.176.08-.167.049-.29.204-.29.387 0 .222.182.403.404.403h.484v.493c0 .222.18.403.403.403M7.175 6.404c-.142-.171-.397-.195-.568-.052l-.245.203c-.082.07-.133.166-.143.274-.01.107.023.212.092.294.077.093.19.146.31.146.094 0 .186-.034.258-.094l.244-.204c.083-.069.134-.166.144-.273.01-.107-.023-.212-.092-.294M8.014 7.5c-.188-.118-.437-.06-.556.128l-.203.326c-.118.188-.06.438.129.555.064.04.138.062.213.062.14 0 .268-.071.343-.19l.203-.326c.118-.188.06-.438-.129-.555M9.262 6.052c-.103-.031-.212-.021-.307.03-.096.05-.165.134-.197.237l-.122.397c-.032.103-.021.212.029.307s.135.165.238.197c.038.012.078.018.118.018.179 0 .333-.114.386-.285l.122-.396c.032-.103.021-.213-.03-.308-.05-.095-.134-.165-.237-.197M8.974 7.96c-.222-.025-.42.136-.445.356l-.061.55c-.012.106.018.212.086.296.067.084.163.137.27.149l.045.002c.206 0 .378-.154.4-.359l.062-.549c.012-.107-.019-.212-.086-.296-.068-.085-.164-.138-.27-.15M8.536 5.664c-.044-.1-.124-.175-.225-.214-.1-.038-.21-.035-.308.01l-.275.121c-.203.09-.295.33-.204.533.064.145.21.24.369.24.056 0 .111-.013.163-.036l.275-.122c.098-.044.174-.123.212-.224.04-.1.036-.21-.007-.308M14.953 12.682c0 .065-.006.13-.02.193-.012-.064-.018-.128-.018-.193s.006-.129.019-.192c.013.063.019.127.019.192m1.139.25c-.132 0-.26.025-.382.073.017-.108.025-.216.025-.323 0-.51-.182-1.007-.512-1.398-.074-.088-.186-.138-.308-.138s-.234.05-.308.138c-.33.391-.513.888-.513 1.398 0 .107.009.215.026.323-.122-.048-.25-.073-.382-.073-.223 0-.404.181-.404.404 0 .222.181.403.404.403.07 0 .133.03.176.08-.167.049-.29.204-.29.387 0 .222.181.403.404.403h.484v.493c0 .222.18.403.403.403.222 0 .403-.181.403-.403v-.493h.484c.222 0 .403-.18.403-.403 0-.183-.122-.338-.29-.387.044-.05.107-.08.177-.08.222 0 .403-.18.403-.403 0-.223-.18-.404-.403-.404M15.15 7.175c.073.06.165.094.259.094.12 0 .233-.053.31-.146.069-.082.102-.187.092-.294-.01-.108-.06-.205-.143-.274l-.245-.203c-.17-.143-.426-.12-.568.051-.069.083-.102.188-.092.295.01.107.06.204.144.274l.244.203zM14.016 7.5c-.19.117-.247.367-.129.555l.203.326c.075.119.203.19.343.19.076 0 .15-.022.213-.062.092-.057.155-.146.18-.25.024-.106.006-.214-.051-.305l-.204-.326c-.117-.188-.366-.246-.555-.129M12.623 6.953c.052.17.207.285.386.285.04 0 .08-.006.118-.018.103-.031.188-.101.238-.197.05-.095.06-.204.03-.307l-.123-.397c-.032-.103-.101-.187-.196-.238-.096-.05-.205-.06-.308-.029-.103.032-.188.102-.238.197-.05.096-.06.205-.029.308l.122.396zM13.501 8.316c-.024-.22-.224-.38-.445-.356-.107.011-.204.064-.27.149-.068.084-.099.189-.087.296l.061.55c.023.204.195.358.4.358.016 0 .031 0 .046-.002.107-.012.203-.065.27-.15.067-.083.098-.189.086-.296l-.061-.55zM13.7 6.196l.274.122c.052.023.107.035.163.035.16 0 .305-.094.37-.24.043-.098.046-.208.007-.308s-.114-.18-.212-.224l-.275-.122c-.098-.044-.208-.047-.308-.009-.1.039-.18.115-.225.214-.09.203.002.442.205.532" transform="translate(-55.000000, -867.000000) translate(1.000000, 36.000000) translate(54.000000, 831.000000)"/>
                </g>
            </g>
        </g>
    </g>
</svg>
