<svg xmlns="http://www.w3.org/2000/svg" xmlns:xlink="http://www.w3.org/1999/xlink" width="22" height="22" viewBox="0 0 22 22">
    <defs>
        <path id="b2lhm5jyka" d="M0 0L21.942 0 21.942 21.925 0 21.925z"/>
    </defs>
    <g fill="none" fill-rule="evenodd">
        <g>
            <g>
                <g transform="translate(-55.000000, -1035.000000) translate(1.000000, 36.000000) translate(54.000000, 999.000000)">
                    <mask id="z8ks9gyslb" fill="#fff">
                        <use xlink:href="#b2lhm5jyka"/>
                    </mask>
                    <path fill="#72849A" d="M20.57 11.566c0 .104-.014.222-.027.335l-.001.107c-.182 1.658-.798 3.244-1.78 4.59-.102 0-.203-.006-.302-.02-.156-.065-.276-.19-.335-.347.162-.446.175-1.22.175-2.254 0-.14.41-.448.583-.579.248-.181.484-.383.695-.595.262-.227.374-.594.283-.94-.162-.526-.71-.641-1.111-.726-.045-.009-.09-.018-.134-.029-.023-.327-.146-.634-.363-.897-.327-.367-.797-.578-1.29-.578l-.055.001c-.14 0-.312 0-.369-.688-.025-.509-.353-.95-.837-1.126-.095-.032-.165-.114-.183-.219l-.005-.022c-.033-.126-.048-.184.685-.48l.318-.128c.019-.008.196-.078.824-.078.39 0 .861.027 1.398.08.321.032.648.037.971.013l.117.266c.019.043.035.086.055.139l.034.087.06.153.032.084c.03.076.066.19.092.27l.06.189c.03.1.06.203.087.305l.046.172c.024.096.046.192.067.289.004.064.018.118.032.168l.008.033c.019.098.038.197.054.296.003.06.013.111.021.159.004.017.007.035.009.052l.015.117c.008.059.017.126.023.184.007.064.011.12.016.183l.013.158c.005.055.01.104.011.149 0 .093.004.185.008.285.004.082.007.165.007.248 0 .184-.002.311-.01.462l.003.132zm-3.7 5.273c.18.403.487.728.874.93-1.787 1.79-4.253 2.816-6.791 2.819-5.293 0-9.604-4.307-9.61-9.6-.002-1.13.205-2.283.6-3.352.46.816 1.222 1.333 1.846 1.756l.02.014c.601.4.601 1.17.601 1.847 0 .79.638 1.238 1.15 1.597l.079.054c.203.117.384.265.537.442.165.373.28.767.34 1.172.063.39.173.773.33 1.142l.01.017c.015.034.065.231.047 1.363-.019.377-.009.76.03 1.146l.009.041c.191.69.822 1.176 1.528 1.184.357.016.697-.146.915-.44.221-.33.28-.752.157-1.12-.032-.133-.042-.27-.029-.418l.001-.103c.057-.504.068-.529.279-.635.847-.366 1.433-1.166 1.53-2.088.04-.47.081-.628.68-.828 1.165-.39 1.303-1.344 1.386-1.914l.014-.092.03-.184c.194-.962-.712-1.941-1.662-2.374-.194-.092-.41-.138-.638-.138-.414 0-.802.146-1.144.274l-.109.042c-.05.022-.102.043-.154.063-.002-.424-.12-.839-.341-1.206l-.011-.017c-.413-.571-.89-.644-1.26-.644-.14 0-.283.011-.423.023-.168.014-.368.03-.608.03-.71 0-1.004-.233-1.052-.276-.05-.057-.102-.112-.156-.163l-.077-.074c.11.008.214.02.31.038.376.082.775.086 1.162.012l.031-.008c.545-.182.72-.664.791-1.068.203.073.416.119.643.135h.027c.697-.037 1.327-.411 1.682-.995.72-1.033-.602-2.555-.613-2.566-.112-.134-.16-.705-.096-1.145l.018-.096c.073-.01.147-.018.22-.025-.075.797.125 1.097.202 1.214.376.564.81.88 1.298.943.05.003.117.003.143 0 .338-.002.658-.129.9-.355.48-.423.908-.905 1.27-1.434.131.04.263.083.392.129-.088.086-.171.178-.25.277-.631.84-1.001 1.523-.754 2.134l.007.016c.302.615.889 1.05 1.572 1.166.09.012.18.018.278.018.25-.008.502-.036.748-.086.225-.046.454-.073.682-.081.627-.02 1.206-.338 1.558-.855l.037-.013c.316.346.608.716.87 1.105l-.055-.005c-.584-.057-1.096-.086-1.522-.086-.636 0-1.089.062-1.383.19l-.29.119c-.654.26-1.872.746-1.51 2.109.113.524.474.959.958 1.158l.03.016c.154 1.68 1.16 1.932 1.753 1.932l.02-.001c.096-.007.187.022.259.085.03.047.038.104.025.169-.083.495.166.854.74 1.07-.484.376-1.051.847-1.051 1.622 0 1.474-.066 1.725-.089 1.774-.146.361-.123.764.06 1.098zM2.946 5.669l.1-.15c.062-.09.124-.179.187-.263l.078-.104c.064-.083.13-.169.204-.248l.107-.128c.066-.078.134-.159.187-.227l.306-.326.323-.31.172-.155.371-.312.49-.366c.092-.065.186-.128.284-.19l.085-.054c.103-.066.208-.129.317-.192l.065-.038c.112-.064.226-.126.341-.186l.056-.03c.118-.06.238-.117.357-.171l.056-.026c.12-.054.244-.106.369-.155l.052-.022c.123-.048.248-.094.366-.135l.069-.022c.122-.042.247-.08.368-.116l.064-.017c-.024.554.032 1.249.37 1.74v.019l.071.085c.357.432.487.819.505.941-.124.161-.317.336-.494.349-.14-.025-.27-.07-.409-.144-.193-.088-.457-.21-.739-.21-.274 0-.504.118-.671.344l-.017.026c-.13.232-.197.493-.196.75-.002.073-.01.146-.025.218-.137-.005-.274-.019-.412-.044l-.018-.002c-.253-.032-.541-.068-.815-.068-.694 0-1.117.253-1.257.752-.24.849.432 1.486.686 1.727l.03.028c.01.01.018.016.018.015.301.375 1.016.775 2.118.775.281 0 .523-.018.722-.035.149-.012.243-.019.313-.019.055 0 .073.003.078.005.007.004.026.029.037.044.076.164.113.347.107.536v.021c.024.375.079 1.252.945 1.356l.04.002c.377 0 .756-.09 1.085-.254l.015-.006c.241-.095.515-.203.693-.203.048 0 .07.008.075.01.573.26.9.74.88.842-.022.11-.04.227-.059.361-.049.545-.121.676-.433.78-1.308.436-1.553 1.225-1.622 2.007-.058.423-.341.794-.743.971-.505.254-.753.58-.886.922-.008-.64-.057-1.04-.197-1.328-.097-.257-.169-.525-.213-.797-.091-.557-.264-1.096-.52-1.612l-.024-.037c-.26-.35-.584-.637-.953-.846l-.079-.056c-.148-.104-.495-.349-.52-.433 0-.819 0-2.19-1.238-3.016-.882-.586-1.644-1.093-1.644-2.229 0-.114.008-.23.022-.343zm8.428-4.307h.13l.25.02c.177.015.356.035.535.06-.215.254-.449.494-.697.715-.047-.034-.134-.11-.245-.273-.007-.054-.02-.211.027-.522zm3.562 1.774l.085-.096c.17-.19.366-.352.585-.481.063.035.129.073.2.116.138.082.276.166.41.251l.124.08c.103.07.202.143.302.217l.09.066c.092.07.185.145.277.222-.05.056-.093.119-.127.187-.099.152-.268.254-.437.266-.307.007-.618.04-.928.1-.19.044-.385.063-.581.056-.172-.042-.323-.138-.433-.275.037-.098.142-.313.433-.709zm6.988 7.224c0-.077 0-.182-.026-.293-.005-.023-.01-.095-.012-.143-.004-.056-.007-.112-.013-.163-.014-.115-.024-.206-.04-.31l-.019-.122-.02-.138c-.014-.082-.037-.222-.059-.333-.012-.068-.022-.113-.034-.166l-.015-.071c-.016-.082-.051-.235-.081-.35l-.043-.155-.02-.07c-.05-.179-.094-.325-.139-.462l-.028-.084c-.036-.11-.067-.203-.108-.317l-.056-.143-.033-.082c-.057-.146-.105-.261-.142-.344l-.02-.045c-.033-.072-.048-.105-.077-.173-.053-.112-.106-.223-.165-.341l-.019-.042c-.012-.026-.024-.052-.043-.086L20.7 5.91c-.503-.963-1.144-1.844-1.904-2.62l-.03-.038-.017-.02c-.038-.037-.077-.072-.115-.107-.024-.021-.048-.042-.071-.065-.103-.098-.205-.195-.31-.29l-.185-.162-.082-.072c-.156-.13-.319-.258-.488-.385l-.234-.167c-.151-.105-.306-.209-.46-.308l-.16-.102c-.201-.123-.411-.24-.623-.348l-.13-.096h-.055c-.714-.354-1.47-.63-2.248-.823L13.52.291c-.177-.04-.355-.077-.531-.111l-.132-.023c-.16-.028-.324-.053-.49-.075l-.15-.018c-.16-.018-.32-.032-.49-.045h-.16c-.094 0-.189-.005-.289-.01C11.173.005 11.066 0 10.96 0h-.167c-.603.01-1.21.068-1.803.176L8.943.18c-.165.03-.33.066-.494.105L8.391.3c-.165.038-.328.082-.482.128l-.053.014c-.16.045-.315.094-.46.146h-.02l-.05.017c-1.233.435-2.37 1.08-3.38 1.919l-.114.099c-.087.072-.18.154-.283.249-.073.066-.115.107-.161.151l-.223.217c-.047.046-.093.095-.14.145l-.09.095-.136.146c-.08.088-.157.178-.231.266l-.118.14c-.047.056-.093.114-.144.18l-.08.102-.112.146c-.069.094-.137.19-.205.288l-.206.303-.01.017c-.008.013-.016.027-.022.041C.12 7.595-.373 10.536.283 13.391c.658 2.863 2.39 5.298 4.88 6.857 1.752 1.097 3.768 1.677 5.83 1.677 3.389 0 6.535-1.523 8.634-4.18l.183-.234.026-.046v-.002c.083-.112.163-.226.238-.338.908-1.331 1.517-2.877 1.761-4.47l.002-.046c.023-.15.042-.301.06-.453v-.126c.012-.132.023-.264.032-.416v-.131c0-.08.003-.16.006-.243.004-.09.007-.18.007-.273 0-.179 0-.4-.018-.607z" mask="url(#z8ks9gyslb)"/>
                </g>
            </g>
        </g>
    </g>
</svg>
