<svg xmlns="http://www.w3.org/2000/svg" xmlns:xlink="http://www.w3.org/1999/xlink" width="19" height="22" viewBox="0 0 19 22">
    <defs>
        <path id="dvvenkadaa" d="M0 0.029L18.906 0.029 18.906 21.85 0 21.85z"/>
    </defs>
    <g fill="none" fill-rule="evenodd">
        <g>
            <g>
                <g>
                    <g transform="translate(-57.000000, -957.000000) translate(1.000000, 36.000000) translate(56.000000, 921.000000) translate(0.000000, 0.120476)">
                        <mask id="sxon16mgmb" fill="#fff">
                            <use xlink:href="#dvvenkadaa"/>
                        </mask>
                        <path fill="#72849A" d="M3.94 1.223v14.921H2.852c-.614 0-1.205.196-1.693.556V3.134c0-.506.184-1 .503-1.357.32-.357.746-.554 1.196-.554h1.08zm0 16.081v3.386H2.852c-.452 0-.877-.176-1.197-.496-.32-.32-.496-.745-.496-1.197 0-.452.176-.877.496-1.197.32-.32.745-.496 1.197-.496h1.086zm1.16-1.16h12.646V1.224H5.1v14.92zm0 1.52h12.646v-.36H5.1v.36zm0 1.506h12.646v-.346H5.1v.346zm0 1.52h12.646v-.36H5.1v.36zM17.895.063H4.716c-.126-.045-.267-.045-.393 0H2.859c-.773 0-1.524.343-2.06.94C.285 1.576 0 2.334 0 3.133v15.863c0 .762.297 1.479.836 2.017.538.54 1.255.836 2.017.836h15.042c.558 0 1.01-.453 1.01-1.01V1.074c0-.557-.452-1.01-1.01-1.01z" mask="url(#sxon16mgmb)"/>
                    </g>
                    <path fill="#72849A" d="M13.69 4.605H9.52c-.32 0-.58.26-.58.58 0 .32.26.58.58.58h4.17c.32 0 .58-.26.58-.58 0-.32-.26-.58-.58-.58M7.445 3.828h8.32c.32 0 .58-.26.58-.58 0-.32-.26-.58-.58-.58h-8.32c-.32 0-.58.26-.58.58 0 .32.26.58.58.58" transform="translate(-57.000000, -957.000000) translate(1.000000, 36.000000) translate(56.000000, 921.000000)"/>
                </g>
            </g>
        </g>
    </g>
</svg>
