<svg xmlns="http://www.w3.org/2000/svg" xmlns:xlink="http://www.w3.org/1999/xlink" width="23" height="25" viewBox="0 0 23 25">
    <defs>
        <path id="m6kd3n3ana" d="M0.137 0.118L22.22 0.118 22.22 13.378 0.137 13.378z"/>
    </defs>
    <g fill="none" fill-rule="evenodd">
        <g>
            <g>
                <g>
                    <g transform="translate(-55.000000, -285.000000) translate(1.000000, 36.000000) translate(54.000000, 249.000000) translate(0.692771, 0.020090)">
                        <mask id="asi37gm34b" fill="#fff">
                            <use xlink:href="#m6kd3n3ana"/>
                        </mask>
                        <path fill="#72849A" d="M4.269 5.406c-.418.243-.906.342-1.39.279-.484-.063-.93-.282-1.274-.623.419-.243.907-.342 1.39-.279.485.063.93.282 1.274.623m.996 2.305c-.063.484-.282.93-.623 1.273-.243-.418-.341-.906-.28-1.39.063-.482.284-.929.625-1.271.242.418.34.905.278 1.388m4.057-4.488c-.49-.016-.948-.183-1.326-.484-.395-.313-.672-.746-.791-1.232.5.006.984.177 1.379.49.39.31.666.74.787 1.22l-.05.006m-1.036 1.95c.313-.396.746-.673 1.232-.792-.006.5-.177.985-.49 1.38-.314.395-.747.672-1.233.79.006-.5.177-.984.49-1.379m6.093-.017c-.284.396-.691.688-1.162.83-.473.142-.977.123-1.428-.049.284-.396.692-.688 1.163-.83.47-.142.972-.124 1.427.049m.541-1.028c-.396-.285-.688-.692-.83-1.163-.142-.471-.124-.972.05-1.428.395.284.687.692.83 1.163.141.47.123.971-.05 1.428m3.689 3.279c-.211-.352-.308-.765-.274-1.178.033-.414.196-.805.462-1.118.212.352.309.765.275 1.178-.034.414-.197.805-.463 1.118m-.89.767c-.352.212-.756.307-1.177.273-.414-.034-.805-.197-1.118-.463.35-.21.764-.307 1.178-.275.411.034.802.198 1.117.465m4.499 2.003c-.019-.144-.092-.272-.206-.36-.237-.183-.579-.14-.761.096l-1.166 1.506c-.144-1.049-.462-2.06-.945-3.011.59-.526.948-1.242 1.013-2.03.074-.91-.258-1.8-.912-2.44l-.321-.315-.37.258c-.678.475-1.13 1.194-1.264 2.001-.442-.432-.925-.822-1.44-1.162.337-.733.395-1.557.161-2.334-.285-.945-.97-1.707-1.881-2.092L13.71.118l-.249.375c-.546.824-.696 1.838-.411 2.784.02.066.043.133.07.202-.828-.228-1.684-.344-2.549-.344-.037 0-.073.002-.11.004-.15-.789-.574-1.492-1.203-1.99C8.66.673 7.942.422 7.18.422c-.233 0-.466.024-.694.072l-.44.093.01.45c.021 1 .483 1.93 1.265 2.55.034.027.07.054.107.08-.795.277-1.55.656-2.246 1.129-.529-.601-1.25-.986-2.047-1.089-.976-.126-1.95.187-2.67.858l-.328.306.24.38c.526.832 1.387 1.382 2.363 1.508.1.013.203.022.305.026-.653.82-1.16 1.725-1.51 2.693-.1.282.046.593.326.694.136.05.283.044.414-.018.132-.061.231-.17.28-.307.19-.528.438-1.04.737-1.53.09.673.385 1.303.853 1.806l.307.33.38-.241c.832-.527 1.382-1.388 1.508-2.363.1-.767-.076-1.54-.493-2.193.405-.27.837-.506 1.289-.705-.392.701-.521 1.524-.354 2.318l.093.44.45-.01c1-.02 1.93-.482 2.551-1.265.501-.631.754-1.413.72-2.215.466.001.935.042 1.4.12-.652.357-1.16.916-1.452 1.61l-.175.413.375.25c.545.36 1.177.551 1.828.551.323 0 .644-.047.955-.141.741-.223 1.376-.698 1.802-1.345.411.278.8.593 1.157.94-.843-.015-1.643.314-2.237.922l-.314.321.257.368c.525.75 1.348 1.223 2.26 1.298.081.007.167.01.253.01.557 0 1.095-.15 1.568-.433.381.804.631 1.657.745 2.54L17.412 10.4c-.115-.089-.257-.128-.4-.11-.144.019-.272.092-.361.207-.089.114-.128.256-.11.4.019.144.092.271.207.36l2.591 2.007c.095.073.213.114.332.114.023 0 .046-.002.068-.005.144-.018.272-.091.36-.206l2.007-2.591c.089-.115.128-.257.11-.4" mask="url(#asi37gm34b)"/>
                    </g>
                    <path fill="#72849A" d="M3.888 18.574c-.034.413-.197.804-.463 1.117-.212-.352-.309-.764-.274-1.178.033-.413.196-.804.462-1.118.212.353.309.765.275 1.179m1.732-1.481c-.413-.034-.806-.199-1.116-.465.353-.213.756-.307 1.176-.273.414.034.805.197 1.119.464-.352.213-.756.308-1.18.274m2.464 6.172c-.396-.284-.688-.692-.83-1.163-.142-.47-.124-.971.05-1.427.395.284.687.692.83 1.162.14.471.123.972-.05 1.428m2.35-4.4c-.284.396-.691.688-1.162.83-.472.142-.973.124-1.428-.048.284-.397.692-.689 1.163-.83.471-.143.972-.125 1.428.048m7.423-1.658c-.062.482-.283.93-.624 1.271-.242-.417-.34-.904-.278-1.388.063-.483.283-.93.624-1.273.242.419.34.906.278 1.39m2.758 2.533c-.42.242-.907.341-1.39.278-.484-.063-.93-.282-1.274-.623.419-.243.907-.341 1.39-.279.484.063.93.283 1.274.624m-7.69 1.835c.476.021.925.19 1.3.487.395.313.672.746.79 1.232-.505-.006-.981-.175-1.379-.49-.39-.31-.666-.739-.786-1.22l.075-.01m1.01-1.945c-.313.395-.746.672-1.232.79.006-.5.177-.984.49-1.379.314-.395.747-.672 1.233-.79-.006.5-.177.984-.49 1.38m5.544-1.589c-.099-.013-.2-.02-.306-.023.653-.821 1.161-1.727 1.51-2.696.102-.281-.044-.593-.325-.694-.135-.05-.282-.043-.413.018-.132.062-.232.171-.281.308-.19.527-.438 1.04-.737 1.53-.09-.674-.385-1.304-.853-1.807l-.307-.329-.38.24c-.832.526-1.382 1.388-1.508 2.364-.099.767.076 1.54.493 2.192-.405.27-.837.506-1.288.705.391-.701.52-1.525.353-2.318l-.093-.44-.45.01c-1 .021-1.93.482-2.55 1.265-.501.631-.755 1.413-.722 2.215-.465-.001-.934-.042-1.398-.12.651-.356 1.159-.916 1.451-1.609l.175-.414-.374-.249c-.812-.538-1.853-.692-2.784-.41-.74.222-1.376.697-1.802 1.344-.411-.278-.8-.593-1.158-.94h.051c.829 0 1.605-.327 2.187-.922l.315-.321-.258-.369c-.525-.75-1.349-1.222-2.26-1.297-.645-.054-1.272.092-1.82.424-.382-.805-.632-1.658-.746-2.54L4.81 14.4c.237.183.578.14.76-.097.183-.236.14-.577-.096-.76L2.88 11.537c-.237-.182-.578-.139-.76.097L.113 14.225c-.089.115-.128.257-.11.4.019.144.092.272.206.36.096.075.211.114.332.114.17 0 .326-.076.429-.21l1.166-1.505c.144 1.048.462 2.059.945 3.01-.59.526-.948 1.243-1.013 2.03-.074.911.258 1.8.912 2.44l.322.315.368-.258c.678-.474 1.13-1.193 1.265-2 .442.432.925.821 1.44 1.161-.337.733-.395 1.557-.161 2.333.285.946.97 1.708 1.881 2.093l.415.175.248-.375c.547-.824.696-1.839.411-2.784-.02-.066-.043-.133-.07-.202.828.228 1.684.344 2.549.344.037 0 .073-.002.11-.004.15.789.574 1.492 1.203 1.991.598.475 1.317.725 2.08.725.232 0 .465-.024.692-.072l.44-.092-.01-.45c-.021-1-.482-1.93-1.265-2.552l-.106-.08c.795-.276 1.549-.655 2.245-1.128.529.601 1.251.986 2.048 1.09.14.017.284.027.426.027.833 0 1.63-.314 2.242-.885l.33-.307-.24-.38c-.527-.832-1.389-1.382-2.364-1.508" transform="translate(-55.000000, -285.000000) translate(1.000000, 36.000000) translate(54.000000, 249.000000)"/>
                </g>
            </g>
        </g>
    </g>
</svg>
