<svg xmlns="http://www.w3.org/2000/svg" xmlns:xlink="http://www.w3.org/1999/xlink" width="29" height="22" viewBox="0 0 29 22">
    <defs>
        <path id="x6hkpdcc5a" d="M0.094 0.072L17.928 0.072 17.928 21.894 0.094 21.894z"/>
        <path id="q3xl7n3lpc" d="M0 21.928L28.604 21.928 28.604 0.106 0 0.106z"/>
    </defs>
    <g fill="none" fill-rule="evenodd">
        <g>
            <g>
                <g transform="translate(-52.000000, -788.000000) translate(1.000000, 36.000000) translate(51.000000, 752.000000)">
                    <path fill="white" d="M15.686 9.026c.232 0 .42-.189.42-.42V8.29c0-.232-.188-.42-.42-.42-.232 0-.421.188-.421.42v.315c0 .232.189.421.42.421M13.798 9.026c.232 0 .42-.189.42-.42V8.29c0-.232-.188-.42-.42-.42-.232 0-.421.188-.421.42v.315c0 .232.189.421.42.421"/>
                    <g transform="translate(5.101449, 0.034435)">
                        <mask id="8w4p4khn9b" fill="#fff">
                            <use xlink:href="#x6hkpdcc5a"/>
                        </mask>
                        <path fill="white" d="M6.726 8.577v.62C6.646 9.108 6.6 9 6.6 8.887c0-.113.046-.221.126-.31zm7.112 12.473h1.99v-1.358h-1.99v1.358zm-10.385 0h1.99v-1.358h-1.99v1.358zm6.873-18.78c.7.123 1.2.414 1.425.566v3.818h-.793l-.31-.619-.322-3.764zm.5 12.993l-.592-.466.467-.585.027-.03.317-.397.958.32-1.176 1.158zm-2.023-2.934c.031.01.063.019.095.027l.026.006.01.002c.086.02.175.038.274.053l.125.015c.07.007.141.012.22.014l.032.003c.037.003.074.003.111 0l.032-.003c.078-.002.15-.007.22-.014.042-.004.084-.01.126-.016.095-.014.182-.03.268-.051l.015-.003.028-.007c.031-.008.063-.016.093-.026v.816l-.384.484-.027.03-.427.533-.423-.53-.016-.018-.398-.499v-.816zm-1.26-4.78h4.194v1.964c0 .766-.417 1.469-1.088 1.836-.45.253-1.01.322-1.532.191-.173-.043-.338-.108-.49-.193-.668-.366-1.083-1.069-1.083-1.834V7.55zm1.497 7.24l-.62.465-1.147-1.148.963-.321.318.398.015.017.471.59zm4.377 3.117c-.232 0-.421.19-.421.421v2.723h-6.71v-2.723c0-.232-.19-.42-.422-.42-.232 0-.42.188-.42.42v.524H3.452v-.527c0-.643.153-1.274.445-1.832.024.013.047.024.071.032.043.014.088.022.133.022l.024-.002.005-.001c.059-.004.112-.018.16-.042l2.25-1.126c.125-.064.21-.184.229-.324l.029-.229 1.285 1.286c.037.037.082.067.133.089.017.007.032.01.044.012.029.009.061.017.096.02l.025.002c.024 0 .045-.005.06-.008l.02-.003c.015-.002.03-.004.044-.009.048-.015.091-.037.129-.065l1-.75.963.758c.039.03.083.053.131.069.017.005.03.006.043.008l.012.002c.02.005.045.01.074.01l.025-.002c.03-.002.056-.01.077-.015l-.022-.104.034.101c.012-.002.03-.005.049-.013.05-.021.095-.05.132-.087l1.33-1.31.028.222c.018.14.104.261.23.324l2.254 1.125.004.002c.044.02.092.033.147.036l.032.005c.015 0 .03-.002.044-.005l.014-.002c.01-.001.022-.002.034-.005.028-.006.055-.016.089-.031l.015-.007c.298.563.454 1.199.454 1.847v.527h-1.99v-.524c0-.232-.19-.42-.421-.42zm-.177-3.824l.545-.312 1.675.837-.47.934-1.671-.834-.079-.625zM9.28 6.654l.192-.382.168-1.967.169 1.967.191.382h-.72zM7.53 2.861c.467-.28.945-.471 1.423-.57l-.32 3.744-.31.62H7.53V2.86zM5.962 14.722l-1.672.838-.02-.04-.45-.897 1.675-.835.547.31-.08.624zm6.617-5.525v-.62c.08.089.126.197.126.31 0 .113-.046.221-.126.31zm4.928 11.855h-.837v-2.728c0-.95-.277-1.867-.802-2.653l.534-1.063c.05-.1.058-.216.023-.322-.036-.106-.11-.193-.211-.243l-2.254-1.127c-.126-.063-.275-.059-.397.011l-.894.512-1.349-.45v-1.073c.587-.408 1-1.01 1.169-1.706.603-.15 1.034-.696 1.034-1.323 0-.591-.384-1.112-.944-1.294V7.55h.009v-.038h.02V2.447l-.125-.125c-.002-.002-.194-.174-.55-.376V.072h-.857v1.502c-.449-.145-.91-.218-1.375-.218-.959 0-1.912.306-2.834.91l-.194.126v5.119H6.7l.003.082c-.56.182-.944.703-.944 1.294 0 .627.43 1.173 1.034 1.323.17.697.582 1.299 1.169 1.706v1.073l-1.367.456-.877-.5c-.122-.07-.27-.074-.396-.01l-2.253 1.123c-.1.05-.177.138-.212.244-.035.105-.027.222.023.322l.528 1.053c-.521.785-.796 1.7-.796 2.647v2.728H.515c-.233 0-.421.189-.421.42 0 .233.188.422.42.422h16.993c.233 0 .421-.19.421-.421 0-.232-.188-.421-.42-.421z" mask="url(#8w4p4khn9b)"/>
                    </g>
                    <path fill="white" d="M14.742 19.511c-.233 0-.423.19-.423.423 0 .084.026.165.075.235-.005.023-.007.046-.007.07 0 .195.159.354.354.354.196 0 .355-.16.355-.355 0-.022-.002-.044-.007-.067.049-.07.075-.153.075-.237 0-.233-.19-.423-.422-.423M14.742 16.368c-.233 0-.423.189-.423.422 0 .233.19.422.423.422.233 0 .422-.189.422-.422 0-.233-.19-.422-.422-.422M14.742 17.938c-.233 0-.423.19-.423.422 0 .233.19.423.423.423.233 0 .422-.19.422-.423 0-.233-.19-.422-.422-.422M22.761 10.505c.223 0 .403-.18.403-.403v-.247c0-.223-.18-.403-.403-.403-.222 0-.403.18-.403.403v.247c0 .222.181.403.403.403M21.278 10.505c.222 0 .403-.18.403-.403v-.247c0-.223-.18-.403-.403-.403-.222 0-.403.18-.403.403v.247c0 .222.18.403.403.403"/>
                    <mask id="okvr36y9ud" fill="#fff">
                        <use xlink:href="#q3xl7n3lpc"/>
                    </mask>
                    <path fill="white" d="M25.39 19.834h1.419v-.922h-1.42v.922zM20.445 9.372h3.15v1.47c0 .575-.313 1.103-.818 1.38-.333.186-.763.24-1.15.143-.131-.033-.254-.082-.369-.146-.501-.274-.813-.802-.813-1.377v-1.47zm1.742-.848h-.333l.1-.2.065-.74.061.721.107.219zm.451-3.283c.464.097.804.288.967.394v2.889H23.1l-.216-.434-.245-2.849zm-1.239.02l-.242 2.83-.217.433h-.506V5.657c.318-.186.642-.32.965-.396zm1.506 9.323l.026-.029.217-.272.593.198-.795.782-.358-.281.317-.398zm2.071.291l-.05-.405.352-.202 1.217.608-.304.606-1.215-.607zm3.224 4.96h-.586v-2.07c0-.747-.213-1.469-.618-2.09l.4-.797c.048-.096.056-.208.022-.308-.033-.103-.105-.185-.202-.234l-1.77-.885c-.12-.06-.265-.055-.38.01l-.675.387-.98-.327v-.754c.447-.32.766-.785.907-1.318.481-.141.824-.593.824-1.099 0-.465-.29-.886-.719-1.058v-4.03l-.118-.12s-.138-.128-.412-.286V3.353h-.818v1.154c-.33-.096-.668-.145-1.008-.145-.767 0-1.53.244-2.266.726l-.185.121v4.083c-.428.172-.719.593-.719 1.058 0 .506.343.958.825 1.099.14.533.46.998.906 1.319v.427l.806.403v-.449l.014.003c.07.017.142.031.22.043l.103.013c.06.006.118.01.179.011.006 0 .013 0 .021.002.033.002.067.002.103 0l.017-.002c.059-.002.118-.005.177-.011l.102-.013c.076-.011.147-.025.215-.041l.02-.005v.522l-.282.355-.025.028-.275.343v.055c0 .15-.03.286-.09.406l-.008.016-.075.553.878.69c.037.029.079.05.124.065.019.006.035.009.04.009l.01.001c.017.004.044.01.085.009.036 0 .066-.009.088-.015l.005-.001c.011-.002.03-.005.05-.014l.038-.01-.001-.007c.034-.018.065-.04.092-.067l.94-.927.004.029c.017.134.1.25.22.31l1.75.875.03.022.022.001c.035.014.073.021.111.023l.035.005c.016 0 .032-.002.048-.005h.003l.037-.006.03-.008h.001c.209.416.319.884.319 1.359v.34h-1.42v-.338c0-.222-.18-.403-.403-.403-.222 0-.403.18-.403.403v2.067h-2.33v.771h.356c.067 0 .138.01.235.034l.758.003.04-.006c.17-.044.28-.044.45 0l.013.004 4.095.002c.223 0 .404-.181.404-.404 0-.222-.181-.403-.404-.403zM8.314 10.505c.223 0 .403-.18.403-.403v-.247c0-.223-.18-.403-.403-.403-.222 0-.403.18-.403.403v.247c0 .222.181.403.403.403M6.831 10.505c.222 0 .403-.18.403-.403v-.247c0-.223-.18-.403-.403-.403-.222 0-.403.18-.403.403v.247c0 .222.181.403.403.403" mask="url(#okvr36y9ud)"/>
                    <path fill="white" d="M5.998 9.372h3.15v1.47c0 .575-.313 1.103-.818 1.38-.333.186-.763.24-1.15.143-.13-.033-.254-.082-.368-.145-.502-.275-.814-.803-.814-1.378v-1.47zm2.193-4.13c.463.096.804.287.968.393v2.889h-.506l-.217-.434-.245-2.849zm-2.204.415c.318-.186.642-.319.965-.396L6.71 8.09l-.217.433h-.506V5.657zm1.42 2.867l.1-.2.065-.739.062.72.106.219h-.333zm-1.56 5.958l.597-.2.554.692-.377.283-.774-.775zm-3.063 5.352h1.419v-.922H2.784v.922zm.314-4.945l1.216-.606.354.2-.051.404-1.215.609-.304-.607zm2.297 5.747c.084-.02.155-.03.221-.03h1.616v-.772H5.009v-2.067c0-.222-.18-.403-.403-.403-.222 0-.403.18-.403.403v.339H2.784v-.341c0-.47.107-.932.31-1.346.048.016.095.022.14.019.062-.002.118-.016.168-.04l1.768-.886c.12-.06.202-.177.22-.31l.003-.033.906.905c.035.036.079.065.125.085.018.008.034.011.049.014.025.008.056.017.088.017l.023.002c.026 0 .047-.004.059-.007l.012-.002c.016-.002.033-.004.048-.01.045-.013.087-.034.124-.062l.93-.697-.202-.53-.004-.01c-.082-.164-.112-.346-.086-.529l.01-.066-.177-.221-.016-.019-.295-.369v-.52l.014.002c.07.017.142.031.22.043.035.005.069.01.103.013.06.006.118.01.179.011.007 0 .013 0 .021.002.034.002.067.002.103 0l.017-.002c.059-.002.118-.005.177-.011l.103-.013c.073-.01.146-.025.214-.041l.01-.003.01-.002v.411l.807-.402v-.39c.446-.322.765-.786.906-1.32.481-.14.824-.592.824-1.098 0-.465-.29-.886-.719-1.059v-4.03l-.117-.118c-.001-.001-.138-.128-.413-.287V3.352H8.63v1.155c-.33-.097-.67-.145-1.009-.145-.767 0-1.53.244-2.266.726l-.185.121v4.082c-.428.173-.719.594-.719 1.06 0 .505.343.957.825 1.098.14.533.46.998.906 1.318v.754l-.993.331-.661-.376c-.115-.066-.26-.07-.38-.01l-1.77.882c-.096.048-.17.133-.203.234s-.025.213.022.308l.396.79c-.402.62-.614 1.34-.614 2.085v2.07H.403c-.222 0-.403.181-.403.403 0 .223.18.403.403.403h4.973l.019-.005z" mask="url(#okvr36y9ud)"/>
                </g>
            </g>
        </g>
    </g>
</svg>
