<svg xmlns="http://www.w3.org/2000/svg" xmlns:xlink="http://www.w3.org/1999/xlink" width="23" height="23" viewBox="0 0 23 23">
    <defs>
        <path id="8a9b5fdu0a" d="M0 0.067L22.995 0.067 22.995 22.289 0 22.289z"/>
    </defs>
    <g fill="none" fill-rule="evenodd">
        <g>
            <g>
                <g>
                    <g>
                        <g transform="translate(-55.000000, -205.000000) translate(1.000000, 36.000000) translate(32.000000, 151.000000) translate(22.000000, 18.000000) translate(0.000000, 0.052046)">
                            <mask id="2t3vvq4odb" fill="#fff">
                                <use xlink:href="#8a9b5fdu0a"/>
                            </mask>
                            <path fill="#72849A" d="M.996 21.31c.087-.484.5-.834 1.008-.834h18.987c.507 0 .912.344 1.005.834h-21zm17.8-1.813v-4.391l1.956 1.097v3.294h-1.955zM11.45 3.053v-.1l.524.001v.103c-.1-.006-.195-.009-.286-.009-.08 0-.159.002-.238.005zM8.344 6.745c.293-1.07 1.111-2.694 3.368-2.694 2.253 0 3.073 1.624 3.369 2.694H8.344zm-2.81 6.989v-.347l6.178-2.615 6.154 2.596v.366H5.535zm2.434-5.796c0-.08.014-.163.04-.238h7.408c.026.075.04.159.04.238 0 .08-.014.163-.04.238H8.008c-.026-.075-.04-.158-.04-.238zm1.287 1.194v1.618l-1.025.435V9.132h1.025zm1.98 0v.779l-1.025.434V9.132h1.025zm1.98 0v1.213l-1.025-.434v-.78h1.024zm1.979 0v2.053l-1.025-.435V9.132h1.025zM5.535 19.44h.023v-4.75h-.023v4.75zm.978.057h1.144v-4.808H6.513v4.808zm3.053 0h1.168v-4.808H9.566v4.808zm3.077 0h1.168v-4.808h-1.168v4.808zm3.077 0h1.168v-4.808H15.72v4.808zm-13.095 0v-3.318l1.955-1.097v4.415H2.625zm19.105.143v-3.975l-2.91-1.64v-.848c.026-.107.021-.211-.012-.303-.048-.132-.147-.23-.262-.268L16.15 11.59V8.825c.17-.246.262-.56.262-.887 0-.363-.11-.7-.312-.954-.103-.584-.682-3.098-3.122-3.769V2.81c0-.452-.342-.81-.787-.834v-.215h.238c.259 0 .477-.23.477-.501 0-.268-.22-.478-.501-.478h-.214V.544c0-.263-.215-.478-.478-.478s-.477.215-.477.478v.238h-.239c-.28 0-.453.26-.453.502 0 .263.214.477.477.477h.215v.219c-.422.046-.74.394-.74.83v.38c-1.09.272-1.947.93-2.547 1.958-.473.811-.635 1.61-.678 1.88-.182.248-.281.57-.281.91 0 .318.101.633.286.89v2.762l-2.409 1.022c-.116.058-.201.15-.243.259-.029.064-.043.13-.043.196v.921l-2.934 1.653v3.89C.7 19.7 0 20.53 0 21.5v.788h22.995V21.5c0-.82-.505-1.558-1.265-1.86z" mask="url(#2t3vvq4odb)"/>
                        </g>
                        <path fill="#72849A" d="M10.448 12.116c-.263 0-.478.215-.478.478v.286c0 .264.215.478.478.478s.477-.214.477-.478v-.286c0-.263-.214-.478-.477-.478M11.712 12.14c-.263 0-.477.214-.477.478v.286c0 .264.214.478.477.478s.478-.214.478-.478v-.286c0-.264-.215-.478-.478-.478M13.454 12.642c0-.264-.214-.478-.478-.478-.263 0-.477.214-.477.478v.286c0 .263.214.478.477.478.152 0 .29-.062.38-.168.078-.092.114-.21.098-.32v-.276z" transform="translate(-55.000000, -205.000000) translate(1.000000, 36.000000) translate(32.000000, 151.000000) translate(22.000000, 18.000000)"/>
                    </g>
                </g>
            </g>
        </g>
    </g>
</svg>
